<mxfile host="app.diagrams.net" agent="Mozilla/5.0 (Windows NT 10.0; Win64; x64) AppleWebKit/537.36 (KHTML, like Gecko) Chrome/131.0.0.0 Safari/537.36 Edg/131.0.0.0" version="25.0.3">
  <diagram name="Page-1" id="9f46799a-70d6-7492-0946-bef42562c5a5">
    <mxGraphModel dx="2066" dy="1107" grid="1" gridSize="10" guides="1" tooltips="1" connect="1" arrows="1" fold="1" page="1" pageScale="1" pageWidth="1100" pageHeight="850" background="none" math="0" shadow="0">
      <root>
        <mxCell id="0" />
        <mxCell id="1" parent="0" />
        <mxCell id="sqjv3KcxAam_sozWtUgp-1" value="&lt;font style=&quot;font-size: 24px;&quot;&gt;Student functionalities&lt;/font&gt;" style="swimlane;whiteSpace=wrap;html=1;" vertex="1" parent="1">
          <mxGeometry x="80" y="30" width="380" height="510" as="geometry" />
        </mxCell>
        <mxCell id="sqjv3KcxAam_sozWtUgp-14" value="" style="edgeStyle=orthogonalEdgeStyle;rounded=0;orthogonalLoop=1;jettySize=auto;html=1;" edge="1" parent="sqjv3KcxAam_sozWtUgp-1" source="sqjv3KcxAam_sozWtUgp-12" target="sqjv3KcxAam_sozWtUgp-13">
          <mxGeometry relative="1" as="geometry" />
        </mxCell>
        <mxCell id="sqjv3KcxAam_sozWtUgp-12" value="Text" style="text;html=1;align=center;verticalAlign=middle;resizable=0;points=[];autosize=1;strokeColor=none;fillColor=none;" vertex="1" parent="sqjv3KcxAam_sozWtUgp-1">
          <mxGeometry x="145" y="140" width="50" height="30" as="geometry" />
        </mxCell>
        <mxCell id="sqjv3KcxAam_sozWtUgp-13" value="&lt;li&gt;&lt;font style=&quot;font-size: 24px;&quot;&gt;Register an account&lt;/font&gt;&lt;font style=&quot;font-size: 36px;&quot;&gt;.&lt;/font&gt;&lt;/li&gt;&lt;li&gt;&lt;font style=&quot;font-size: 24px;&quot;&gt;Log in to the system&lt;/font&gt;&lt;font style=&quot;font-size: 36px;&quot;&gt;.&lt;/font&gt;&lt;/li&gt;&lt;li&gt;&lt;font style=&quot;font-size: 24px;&quot;&gt;Schedule meetings with teachers.&lt;/font&gt;&lt;/li&gt;&lt;li&gt;&lt;font style=&quot;font-size: 24px;&quot;&gt;View their scheduled meetings.&lt;/font&gt;&lt;/li&gt;&lt;li&gt;&lt;font style=&quot;font-size: 24px;&quot;&gt;Update their profile.&lt;/font&gt;&lt;/li&gt;&lt;li&gt;&lt;font style=&quot;font-size: 24px;&quot;&gt;upload files to a meeting&lt;/font&gt;&lt;/li&gt;&lt;li&gt;&lt;font style=&quot;font-size: 24px;&quot;&gt;&lt;br&gt;&lt;/font&gt;&lt;/li&gt;" style="whiteSpace=wrap;html=1;" vertex="1" parent="sqjv3KcxAam_sozWtUgp-1">
          <mxGeometry y="20" width="380" height="490" as="geometry" />
        </mxCell>
        <mxCell id="sqjv3KcxAam_sozWtUgp-17" value="&lt;br&gt;&lt;li&gt;&lt;font style=&quot;font-size: 36px;&quot;&gt;Register an account.&lt;/font&gt;&lt;/li&gt;&lt;li&gt;&lt;font style=&quot;font-size: 36px;&quot;&gt;Log in to the system.&lt;/font&gt;&lt;/li&gt;&lt;li&gt;&lt;font style=&quot;font-size: 36px;&quot;&gt;Manage available times.&lt;/font&gt;&lt;/li&gt;&lt;li&gt;&lt;font style=&quot;font-size: 36px;&quot;&gt;View scheduled meetings.&lt;/font&gt;&lt;/li&gt;&lt;li&gt;&lt;font style=&quot;font-size: 36px;&quot;&gt;Update their profile&lt;/font&gt;&lt;/li&gt;&lt;font size=&quot;3&quot;&gt;&lt;br&gt;&lt;/font&gt;" style="swimlane;whiteSpace=wrap;html=1;startSize=480;" vertex="1" parent="1">
          <mxGeometry x="570" y="20" width="520" height="480" as="geometry">
            <mxRectangle x="570" y="20" width="200" height="480" as="alternateBounds" />
          </mxGeometry>
        </mxCell>
        <mxCell id="sqjv3KcxAam_sozWtUgp-18" value="&lt;font style=&quot;font-size: 36px;&quot;&gt;teacher functionalities&lt;/font&gt;" style="text;html=1;align=center;verticalAlign=middle;whiteSpace=wrap;rounded=0;" vertex="1" parent="sqjv3KcxAam_sozWtUgp-17">
          <mxGeometry x="80" y="10" width="380" height="30" as="geometry" />
        </mxCell>
        <mxCell id="sqjv3KcxAam_sozWtUgp-19" value="" style="whiteSpace=wrap;html=1;aspect=fixed;" vertex="1" parent="1">
          <mxGeometry x="60" y="630" width="580" height="580" as="geometry" />
        </mxCell>
        <mxCell id="sqjv3KcxAam_sozWtUgp-21" value="&lt;h1 style=&quot;margin-top: 0px;&quot;&gt;FrontEnd (UI) Streamlit Application&lt;/h1&gt;&lt;p&gt;&lt;br&gt;&lt;/p&gt;" style="text;html=1;whiteSpace=wrap;overflow=hidden;rounded=0;" vertex="1" parent="1">
          <mxGeometry x="70" y="660" width="430" height="40" as="geometry" />
        </mxCell>
        <mxCell id="sqjv3KcxAam_sozWtUgp-22" value="&lt;font style=&quot;font-size: 24px;&quot;&gt;User actions:&amp;nbsp;Register, Login, Schedule Meetings&lt;/font&gt;" style="text;html=1;align=center;verticalAlign=middle;whiteSpace=wrap;rounded=0;" vertex="1" parent="1">
          <mxGeometry x="100" y="715" width="300" height="95" as="geometry" />
        </mxCell>
        <mxCell id="sqjv3KcxAam_sozWtUgp-23" value="" style="shape=link;html=1;rounded=0;exitX=0.023;exitY=0.591;exitDx=0;exitDy=0;exitPerimeter=0;entryX=1;entryY=0.31;entryDx=0;entryDy=0;entryPerimeter=0;" edge="1" parent="1" target="sqjv3KcxAam_sozWtUgp-19">
          <mxGeometry width="100" relative="1" as="geometry">
            <mxPoint x="59.99999999999989" y="810" as="sourcePoint" />
            <mxPoint x="489.88" y="810" as="targetPoint" />
            <Array as="points" />
          </mxGeometry>
        </mxCell>
        <mxCell id="sqjv3KcxAam_sozWtUgp-24" value="" style="shape=flexArrow;endArrow=classic;html=1;rounded=0;width=22;endSize=13.33;entryX=0.568;entryY=0.727;entryDx=0;entryDy=0;entryPerimeter=0;" edge="1" parent="1">
          <mxGeometry width="50" height="50" relative="1" as="geometry">
            <mxPoint x="310" y="820" as="sourcePoint" />
            <mxPoint x="309.9200000000001" y="899.8800000000001" as="targetPoint" />
          </mxGeometry>
        </mxCell>
        <mxCell id="sqjv3KcxAam_sozWtUgp-25" value="&lt;h1 style=&quot;margin-top: 0px;&quot;&gt;Backend : FastAPI + Python&amp;nbsp;&lt;/h1&gt;&lt;div&gt;&lt;font style=&quot;font-size: 24px;&quot;&gt;Authentication&lt;/font&gt;&lt;/div&gt;&lt;div&gt;&lt;font style=&quot;font-size: 24px;&quot;&gt;User Management&lt;/font&gt;&lt;/div&gt;&lt;div&gt;&lt;font style=&quot;font-size: 24px;&quot;&gt;Meeting Scheduling&lt;/font&gt;&lt;/div&gt;&lt;div&gt;&lt;font style=&quot;font-size: 24px;&quot;&gt;Profile Management&amp;nbsp;&lt;/font&gt;&lt;/div&gt;&lt;div&gt;&lt;br&gt;&lt;/div&gt;&lt;div&gt;&lt;br&gt;&lt;/div&gt;" style="text;html=1;whiteSpace=wrap;overflow=hidden;rounded=0;" vertex="1" parent="1">
          <mxGeometry x="80" y="890" width="550" height="160" as="geometry" />
        </mxCell>
      </root>
    </mxGraphModel>
  </diagram>
</mxfile>
